<mxfile host="65bd71144e">
    <diagram id="MOaqTJyQDEPCfKq5nXHp" name="Page-1">
        <mxGraphModel dx="2011" dy="1569" grid="1" gridSize="10" guides="0" tooltips="1" connect="1" arrows="1" fold="1" page="0" pageScale="1" pageWidth="850" pageHeight="1100" math="0" shadow="0">
            <root>
                <mxCell id="0"/>
                <mxCell id="1" parent="0"/>
                <mxCell id="2" value="Embedding Model&lt;br&gt;(Gemini Embedding / OpenAI Embedding)" style="shape=mxgraph.signs.healthcare.brain;html=1;pointerEvents=1;fillColor=#000000;strokeColor=none;verticalLabelPosition=bottom;verticalAlign=top;align=center;fontColor=#000000;" vertex="1" parent="1">
                    <mxGeometry x="390" y="470" width="98" height="85" as="geometry"/>
                </mxCell>
                <mxCell id="6" value="Relational DB (MySQL)" style="outlineConnect=0;dashed=0;verticalLabelPosition=bottom;verticalAlign=top;align=center;html=1;shape=mxgraph.aws3.mysql_db_instance;fillColor=#2E73B8;gradientColor=none;fontColor=#000000;" vertex="1" parent="1">
                    <mxGeometry x="620" y="71.75" width="60" height="64.5" as="geometry"/>
                </mxCell>
                <mxCell id="40" value="SPARQL Response" style="edgeStyle=none;html=1;entryX=1.047;entryY=0.111;entryDx=0;entryDy=0;entryPerimeter=0;rounded=0;curved=1;fontColor=#000000;" edge="1" parent="1" source="7" target="29">
                    <mxGeometry x="0.0802" y="-5" relative="1" as="geometry">
                        <mxPoint x="400" y="-90" as="targetPoint"/>
                        <mxPoint x="400" y="-180" as="sourcePoint"/>
                        <Array as="points">
                            <mxPoint x="430" y="-140"/>
                        </Array>
                        <mxPoint as="offset"/>
                    </mxGeometry>
                </mxCell>
                <mxCell id="7" value="&lt;span style=&quot;&quot;&gt;Knowledge Graph&amp;nbsp;&lt;/span&gt;(&amp;nbsp;&lt;span style=&quot;&quot;&gt;Apache Jena Fuseki&amp;nbsp;&lt;/span&gt;)" style="image;aspect=fixed;html=1;points=[];align=center;fontSize=12;image=img/lib/azure2/management_governance/Resource_Graph_Explorer.svg;fontColor=#000000;" vertex="1" parent="1">
                    <mxGeometry x="311.5" y="-280" width="67" height="64" as="geometry"/>
                </mxCell>
                <mxCell id="8" value="Vector Index (ElasticSearch)" style="outlineConnect=0;dashed=0;verticalLabelPosition=bottom;verticalAlign=top;align=center;html=1;shape=mxgraph.aws3.elasticsearch_service;fillColor=#F58534;gradientColor=none;fontColor=#000000;" vertex="1" parent="1">
                    <mxGeometry x="750" y="223.5" width="67.5" height="81" as="geometry"/>
                </mxCell>
                <mxCell id="14" value="CRUD Operation (SQL)" style="edgeStyle=none;html=1;fontColor=#000000;" edge="1" parent="1" source="11" target="6">
                    <mxGeometry x="0.0109" y="18" relative="1" as="geometry">
                        <mxPoint as="offset"/>
                    </mxGeometry>
                </mxCell>
                <mxCell id="54" value="Retrieve Ontology (OWL/RDFS)" style="edgeStyle=none;html=1;fontColor=#000000;" edge="1" parent="1" source="11" target="52">
                    <mxGeometry x="0.2178" y="-43" relative="1" as="geometry">
                        <mxPoint x="590" y="-100" as="targetPoint"/>
                        <mxPoint as="offset"/>
                    </mxGeometry>
                </mxCell>
                <mxCell id="58" value="Fixed Schema / NL Response" style="edgeStyle=none;html=1;rounded=0;curved=1;fontColor=#000000;entryX=1;entryY=0.75;entryDx=0;entryDy=0;" edge="1" parent="1" source="11" target="75">
                    <mxGeometry x="-0.0585" y="10" relative="1" as="geometry">
                        <mxPoint x="40" y="121.81818181818176" as="targetPoint"/>
                        <Array as="points">
                            <mxPoint x="190" y="140"/>
                        </Array>
                        <mxPoint x="2" as="offset"/>
                    </mxGeometry>
                </mxCell>
                <mxCell id="74" value="Read Prompt templates&lt;div&gt;NL/SPARQL Generation, reasosing&lt;span style=&quot;background-color: light-dark(#ffffff, var(--ge-dark-color, #121212));&quot;&gt;&amp;nbsp;&lt;/span&gt;&lt;/div&gt;" style="edgeStyle=none;html=1;" edge="1" parent="1" source="11" target="73">
                    <mxGeometry relative="1" as="geometry"/>
                </mxCell>
                <mxCell id="11" value="Orchestraion" style="aspect=fixed;sketch=0;html=1;dashed=0;whitespace=wrap;verticalLabelPosition=bottom;verticalAlign=top;fillColor=#2875E2;strokeColor=#ffffff;points=[[0.005,0.63,0],[0.1,0.2,0],[0.9,0.2,0],[0.5,0,0],[0.995,0.63,0],[0.72,0.99,0],[0.5,1,0],[0.28,0.99,0]];shape=mxgraph.kubernetes.icon2;prIcon=api;fontColor=#000000;" vertex="1" parent="1">
                    <mxGeometry x="320" y="80" width="50" height="48" as="geometry"/>
                </mxCell>
                <mxCell id="13" value="CRUD Operation (REST APIs),&lt;div&gt;&lt;span style=&quot;color: rgb(0, 0, 0);&quot;&gt;NL Query&amp;nbsp;✍️ /&amp;nbsp;🗣️&lt;/span&gt;&lt;/div&gt;" style="edgeStyle=none;html=1;entryX=0.005;entryY=0.63;entryDx=0;entryDy=0;entryPerimeter=0;rounded=0;curved=1;fontColor=#000000;" edge="1" parent="1" source="75" target="11">
                    <mxGeometry x="-0.041" y="10" relative="1" as="geometry">
                        <mxPoint x="40" y="116.57142857142867" as="sourcePoint"/>
                        <mxPoint x="300" y="170" as="targetPoint"/>
                        <Array as="points">
                            <mxPoint x="200" y="80"/>
                        </Array>
                        <mxPoint as="offset"/>
                    </mxGeometry>
                </mxCell>
                <mxCell id="15" value="Embedding Service" style="aspect=fixed;sketch=0;html=1;dashed=0;whitespace=wrap;verticalLabelPosition=bottom;verticalAlign=top;fillColor=#2875E2;strokeColor=#ffffff;points=[[0.005,0.63,0],[0.1,0.2,0],[0.9,0.2,0],[0.5,0,0],[0.995,0.63,0],[0.72,0.99,0],[0.5,1,0],[0.28,0.99,0]];shape=mxgraph.kubernetes.icon2;prIcon=api;fontColor=#000000;" vertex="1" parent="1">
                    <mxGeometry x="450" y="242" width="50" height="48" as="geometry"/>
                </mxCell>
                <mxCell id="16" value="Embeddable Object" style="edgeStyle=none;html=1;entryX=0.327;entryY=0.163;entryDx=0;entryDy=0;entryPerimeter=0;fontColor=#000000;" edge="1" parent="1" source="11" target="15">
                    <mxGeometry x="0.4492" y="41" relative="1" as="geometry">
                        <mxPoint x="320" y="160" as="sourcePoint"/>
                        <mxPoint x="320" y="240" as="targetPoint"/>
                        <mxPoint as="offset"/>
                    </mxGeometry>
                </mxCell>
                <mxCell id="17" value="Embedding&lt;div&gt;&lt;span style=&quot;background-color: light-dark(#ffffff, var(--ge-dark-color, #121212));&quot;&gt;request&lt;/span&gt;&lt;/div&gt;" style="edgeStyle=none;html=1;entryX=0.174;entryY=-0.025;entryDx=0;entryDy=0;entryPerimeter=0;rounded=0;curved=1;fontColor=#000000;" edge="1" parent="1" source="15" target="2">
                    <mxGeometry x="-0.0219" y="-30" relative="1" as="geometry">
                        <mxPoint x="319.9970588235295" y="320" as="sourcePoint"/>
                        <mxPoint x="320" y="440" as="targetPoint"/>
                        <Array as="points">
                            <mxPoint x="377" y="390"/>
                        </Array>
                        <mxPoint as="offset"/>
                    </mxGeometry>
                </mxCell>
                <mxCell id="31" style="edgeStyle=none;html=1;exitX=0.014;exitY=0.025;exitDx=0;exitDy=0;exitPerimeter=0;rounded=0;curved=1;fontColor=#000000;" edge="1" parent="1" source="29" target="7">
                    <mxGeometry relative="1" as="geometry">
                        <mxPoint x="280" y="-180" as="targetPoint"/>
                        <mxPoint x="280" y="-80" as="sourcePoint"/>
                        <Array as="points">
                            <mxPoint x="270" y="-130"/>
                        </Array>
                    </mxGeometry>
                </mxCell>
                <mxCell id="32" value="Save/Update RDF Triplets,&lt;div&gt;Execute SPARQL Queries&lt;/div&gt;" style="edgeLabel;html=1;align=center;verticalAlign=middle;resizable=0;points=[];fontColor=#000000;" vertex="1" connectable="0" parent="31">
                    <mxGeometry x="-0.0467" relative="1" as="geometry">
                        <mxPoint x="-34" as="offset"/>
                    </mxGeometry>
                </mxCell>
                <mxCell id="29" value="Knowledge Graph Service" style="aspect=fixed;sketch=0;html=1;dashed=0;whitespace=wrap;verticalLabelPosition=bottom;verticalAlign=top;fillColor=#2875E2;strokeColor=#ffffff;points=[[0.005,0.63,0],[0.1,0.2,0],[0.9,0.2,0],[0.5,0,0],[0.995,0.63,0],[0.72,0.99,0],[0.5,1,0],[0.28,0.99,0]];shape=mxgraph.kubernetes.icon2;prIcon=api;fontColor=#000000;" vertex="1" parent="1">
                    <mxGeometry x="320" y="-120" width="50" height="48" as="geometry"/>
                </mxCell>
                <mxCell id="30" value="Sync Data&amp;nbsp;&lt;div&gt;b5n&amp;nbsp;&lt;div&gt;Relation DB &amp;amp; Knowledge Graph&lt;/div&gt;&lt;/div&gt;" style="edgeStyle=none;html=1;fontColor=#000000;" edge="1" parent="1" source="11" target="29">
                    <mxGeometry relative="1" as="geometry">
                        <mxPoint x="345" as="targetPoint"/>
                    </mxGeometry>
                </mxCell>
                <mxCell id="37" value="Embedding Vector&lt;div&gt;Response&lt;/div&gt;" style="edgeStyle=none;html=1;entryX=0.72;entryY=0.99;entryDx=0;entryDy=0;entryPerimeter=0;exitX=0.845;exitY=0.033;exitDx=0;exitDy=0;exitPerimeter=0;rounded=0;curved=1;fontColor=#000000;" edge="1" parent="1" source="2" target="15">
                    <mxGeometry x="0.166" y="-23" relative="1" as="geometry">
                        <mxPoint x="390" y="440" as="sourcePoint"/>
                        <mxPoint x="390" y="320" as="targetPoint"/>
                        <Array as="points">
                            <mxPoint x="580" y="420"/>
                        </Array>
                        <mxPoint x="1" as="offset"/>
                    </mxGeometry>
                </mxCell>
                <mxCell id="43" style="edgeStyle=none;html=1;entryX=0.047;entryY=0.331;entryDx=0;entryDy=0;entryPerimeter=0;exitX=0.9;exitY=0.2;exitDx=0;exitDy=0;exitPerimeter=0;fontColor=#000000;" edge="1" parent="1" source="15" target="8">
                    <mxGeometry relative="1" as="geometry">
                        <mxPoint x="379" y="270" as="sourcePoint"/>
                        <mxPoint x="670" y="270" as="targetPoint"/>
                    </mxGeometry>
                </mxCell>
                <mxCell id="44" value="Query Vector Embeddings,&lt;div&gt;Save Vector Embeddings&lt;/div&gt;" style="edgeLabel;html=1;align=center;verticalAlign=middle;resizable=0;points=[];fontColor=#000000;" vertex="1" connectable="0" parent="43">
                    <mxGeometry x="0.0483" y="-1" relative="1" as="geometry">
                        <mxPoint x="-12" y="-32" as="offset"/>
                    </mxGeometry>
                </mxCell>
                <mxCell id="61" value="Generated SPARQL,&lt;br&gt;Generated NL Response" style="edgeStyle=none;html=1;rounded=0;curved=1;" edge="1" parent="1" source="48" target="11">
                    <mxGeometry relative="1" as="geometry">
                        <Array as="points">
                            <mxPoint x="300" y="350"/>
                        </Array>
                    </mxGeometry>
                </mxCell>
                <mxCell id="48" value="Generation Model (Gemini / ChatGPT)&amp;nbsp;&lt;div&gt;for NL/SPARQL generation and reasoning&lt;/div&gt;" style="shape=mxgraph.signs.healthcare.brain;html=1;pointerEvents=1;fillColor=#1ba1e2;strokeColor=#006EAF;verticalLabelPosition=bottom;verticalAlign=top;align=center;fontColor=#000000;" vertex="1" parent="1">
                    <mxGeometry x="130" y="480" width="98" height="85" as="geometry"/>
                </mxCell>
                <mxCell id="52" value="Ontology Model Store" style="image;sketch=0;aspect=fixed;html=1;points=[];align=center;fontSize=12;image=img/lib/mscae/Resource_Graph_Explorer.svg;fontColor=#000000;" vertex="1" parent="1">
                    <mxGeometry x="600" y="-200" width="49" height="50" as="geometry"/>
                </mxCell>
                <mxCell id="53" value="SPARQL Generation,&lt;div&gt;&lt;span style=&quot;color: rgb(0, 0, 0);&quot;&gt;NL Response Generation&lt;/span&gt;&lt;/div&gt;" style="edgeStyle=none;html=1;entryX=0.5;entryY=0.01;entryDx=0;entryDy=0;entryPerimeter=0;rounded=0;curved=1;fontColor=#000000;" edge="1" parent="1" source="11" target="48">
                    <mxGeometry relative="1" as="geometry">
                        <Array as="points">
                            <mxPoint x="150" y="280"/>
                        </Array>
                    </mxGeometry>
                </mxCell>
                <mxCell id="62" value="MCP (Model Context Protocol) Servers" style="points=[];aspect=fixed;html=1;align=center;shadow=0;dashed=0;fillColor=light-dark(#333333,#EDEDED);strokeColor=none;shape=mxgraph.alibaba_cloud.eip_elastic_ip_address;" vertex="1" parent="1">
                    <mxGeometry x="-20" y="-60" width="47.400000000000006" height="46.5" as="geometry"/>
                </mxCell>
                <mxCell id="70" style="edgeStyle=none;html=1;entryX=0.25;entryY=1;entryDx=0;entryDy=0;" edge="1" parent="1" source="65" target="69">
                    <mxGeometry relative="1" as="geometry"/>
                </mxCell>
                <mxCell id="65" value="Research &amp;amp; Knowledge Update Agents" style="sketch=0;points=[[0,0,0],[0.25,0,0],[0.5,0,0],[0.75,0,0],[1,0,0],[0,1,0],[0.25,1,0],[0.5,1,0],[0.75,1,0],[1,1,0],[0,0.25,0],[0,0.5,0],[0,0.75,0],[1,0.25,0],[1,0.5,0],[1,0.75,0]];outlineConnect=0;fontColor=#232F3E;fillColor=#ED7100;strokeColor=#ffffff;dashed=0;verticalLabelPosition=bottom;verticalAlign=top;align=center;html=1;fontSize=12;fontStyle=0;aspect=fixed;shape=mxgraph.aws4.resourceIcon;resIcon=mxgraph.aws4.lightsail_for_research;" vertex="1" parent="1">
                    <mxGeometry x="-40" y="-260" width="78" height="78" as="geometry"/>
                </mxCell>
                <mxCell id="66" style="edgeStyle=none;html=1;entryX=0.425;entryY=0.026;entryDx=0;entryDy=0;entryPerimeter=0;" edge="1" parent="1" source="65" target="62">
                    <mxGeometry relative="1" as="geometry"/>
                </mxCell>
                <mxCell id="67" value="MCP Instructions" style="edgeLabel;html=1;align=center;verticalAlign=middle;resizable=0;points=[];" vertex="1" connectable="0" parent="66">
                    <mxGeometry x="0.0763" y="-2" relative="1" as="geometry">
                        <mxPoint as="offset"/>
                    </mxGeometry>
                </mxCell>
                <mxCell id="68" value="CRUD Operation (REST APIs)" style="edgeStyle=none;html=1;entryX=0.076;entryY=0.032;entryDx=0;entryDy=0;entryPerimeter=0;" edge="1" parent="1" source="62" target="11">
                    <mxGeometry x="-0.1674" y="29" relative="1" as="geometry">
                        <mxPoint as="offset"/>
                    </mxGeometry>
                </mxCell>
                <mxCell id="69" value="Internet, 3rd Party Knowledge Bases, APIs" style="image;aspect=fixed;perimeter=ellipsePerimeter;html=1;align=center;shadow=0;dashed=0;spacingTop=3;image=img/lib/active_directory/internet_cloud.svg;" vertex="1" parent="1">
                    <mxGeometry x="150" y="-370" width="50" height="31.5" as="geometry"/>
                </mxCell>
                <mxCell id="73" value="Prompt Store" style="html=1;verticalLabelPosition=bottom;align=center;labelBackgroundColor=#ffffff;verticalAlign=top;strokeWidth=2;strokeColor=#0080F0;shadow=0;dashed=0;shape=mxgraph.ios7.icons.documents;" vertex="1" parent="1">
                    <mxGeometry x="-40" y="280" width="22.5" height="30" as="geometry"/>
                </mxCell>
                <mxCell id="75" value="User" style="image;aspect=fixed;perimeter=ellipsePerimeter;html=1;align=center;shadow=0;dashed=0;spacingTop=3;image=img/lib/active_directory/user_accounts.svg;" vertex="1" parent="1">
                    <mxGeometry x="-50" y="90" width="50" height="48.5" as="geometry"/>
                </mxCell>
            </root>
        </mxGraphModel>
    </diagram>
</mxfile>